<svg xmlns="http://www.w3.org/2000/svg" xmlns:xlink="http://www.w3.org/1999/xlink" width="500" zoomAndPan="magnify" viewBox="0 0 224.87999 37.5" height="100" preserveAspectRatio="xMidYMid meet" version="1.0"><defs><g/></defs><g fill="#3c6aaf" fill-opacity="1"><g transform="translate(2.988222, 21.566849)"><g><path d="M 15.125 -3 C 14.476562 -1.957031 13.585938 -1.15625 12.453125 -0.59375 C 11.316406 -0.0390625 10.054688 0.234375 8.671875 0.234375 C 6.972656 0.234375 5.515625 -0.0625 4.296875 -0.65625 C 3.085938 -1.25 2.164062 -2.101562 1.53125 -3.21875 C 0.894531 -4.34375 0.578125 -5.675781 0.578125 -7.21875 C 0.578125 -8.851562 0.925781 -10.269531 1.625 -11.46875 C 2.320312 -12.675781 3.300781 -13.613281 4.5625 -14.28125 C 5.820312 -14.957031 7.289062 -15.296875 8.96875 -15.296875 C 10.4375 -15.296875 11.671875 -15.035156 12.671875 -14.515625 C 13.679688 -14.003906 14.507812 -13.210938 15.15625 -12.140625 L 11.9375 -9.859375 C 11.664062 -10.378906 11.25 -10.789062 10.6875 -11.09375 C 10.125 -11.40625 9.5 -11.5625 8.8125 -11.5625 C 7.570312 -11.570312 6.609375 -11.179688 5.921875 -10.390625 C 5.234375 -9.609375 4.890625 -8.585938 4.890625 -7.328125 C 4.890625 -6.128906 5.203125 -5.191406 5.828125 -4.515625 C 6.460938 -3.835938 7.414062 -3.5 8.6875 -3.5 C 10.164062 -3.5 11.269531 -4.140625 12 -5.421875 Z M 15.125 -3 "/></g></g></g><g fill="#3c6aaf" fill-opacity="1"><g transform="translate(22.04984, 21.566849)"><g><path d="M 1.28125 -3.734375 L 1.28125 -7.25 L 8.34375 -7.25 L 8.34375 -3.734375 Z M 1.28125 -3.734375 "/></g></g></g><g fill="#3c6aaf" fill-opacity="1"><g transform="translate(36.011619, 21.566849)"><g><path d="M -0.828125 0 L 5.828125 -15.09375 L 9.34375 -15.09375 L 15.765625 0 L 11.46875 0 L 10.40625 -2.703125 L 4.5625 -2.703125 L 3.46875 0 Z M 6.015625 -6.203125 L 9.015625 -6.203125 L 7.546875 -9.90625 Z M 6.015625 -6.203125 "/></g></g></g><g fill="#3c6aaf" fill-opacity="1"><g transform="translate(55.370726, 21.566849)"><g><path d="M 5.4375 0 L 1.28125 0 L 1.28125 -15.09375 L 6.984375 -15.09375 C 9.328125 -15.09375 11.050781 -14.671875 12.15625 -13.828125 C 13.269531 -12.984375 13.828125 -11.753906 13.828125 -10.140625 C 13.828125 -9.054688 13.535156 -8.125 12.953125 -7.34375 C 12.378906 -6.570312 11.5625 -5.976562 10.5 -5.5625 C 9.4375 -5.144531 8.164062 -4.9375 6.6875 -4.9375 L 5.4375 -4.9375 Z M 7.125 -11.671875 L 5.4375 -11.671875 L 5.4375 -8.375 L 6.90625 -8.375 C 7.78125 -8.375 8.445312 -8.507812 8.90625 -8.78125 C 9.375 -9.050781 9.609375 -9.488281 9.609375 -10.09375 C 9.609375 -10.632812 9.410156 -11.03125 9.015625 -11.28125 C 8.617188 -11.539062 7.988281 -11.671875 7.125 -11.671875 Z M 7.125 -11.671875 "/></g></g></g><g fill="#3c6aaf" fill-opacity="1"><g transform="translate(73.667366, 21.566849)"><g><path d="M -0.828125 0 L 5.828125 -15.09375 L 9.34375 -15.09375 L 15.765625 0 L 11.46875 0 L 10.40625 -2.703125 L 4.5625 -2.703125 L 3.46875 0 Z M 6.015625 -6.203125 L 9.015625 -6.203125 L 7.546875 -9.90625 Z M 6.015625 -6.203125 "/></g></g></g><g fill="#3c6aaf" fill-opacity="1"><g transform="translate(93.026474, 21.566849)"><g><path d="M 14.578125 -3.90625 L 15.5625 -0.640625 C 15.21875 -0.367188 14.757812 -0.15625 14.1875 0 C 13.625 0.164062 13.050781 0.25 12.46875 0.25 C 11.351562 0.25 10.425781 0.046875 9.6875 -0.359375 C 8.945312 -0.773438 8.351562 -1.359375 7.90625 -2.109375 L 6.5 -4.46875 C 6.332031 -4.75 6.171875 -4.957031 6.015625 -5.09375 C 5.859375 -5.238281 5.664062 -5.332031 5.4375 -5.375 L 5.4375 0 L 1.28125 0 L 1.28125 -15.09375 L 6.375 -15.09375 C 8.695312 -15.09375 10.414062 -14.648438 11.53125 -13.765625 C 12.644531 -12.890625 13.203125 -11.671875 13.203125 -10.109375 C 13.203125 -9.003906 12.878906 -8.085938 12.234375 -7.359375 C 11.597656 -6.628906 10.757812 -6.117188 9.71875 -5.828125 C 10.25 -5.648438 10.671875 -5.328125 10.984375 -4.859375 L 11.375 -4.296875 C 11.726562 -3.742188 12.269531 -3.46875 13 -3.46875 C 13.269531 -3.46875 13.535156 -3.5 13.796875 -3.5625 C 14.054688 -3.625 14.316406 -3.738281 14.578125 -3.90625 Z M 6.328125 -11.671875 L 5.4375 -11.671875 L 5.4375 -8.671875 L 6.53125 -8.671875 C 7.445312 -8.671875 8.082031 -8.789062 8.4375 -9.03125 C 8.800781 -9.28125 8.984375 -9.671875 8.984375 -10.203125 C 8.984375 -10.765625 8.738281 -11.148438 8.25 -11.359375 C 7.757812 -11.566406 7.117188 -11.671875 6.328125 -11.671875 Z M 6.328125 -11.671875 "/></g></g></g><g fill="#3c6aaf" fill-opacity="1"><g transform="translate(111.939344, 21.566849)"><g><path d="M 13.65625 -15.09375 L 13.046875 -11.390625 L 8.625 -11.390625 L 8.625 0 L 4.375 0 L 4.375 -11.390625 L -0.34375 -11.390625 L -0.34375 -15.09375 Z M 13.65625 -15.09375 "/></g></g></g><g fill="#3c6aaf" fill-opacity="1"><g transform="translate(129.25851, 21.566849)"><g><path d="M 1.3125 0 L 1.765625 -15.09375 L 5.234375 -15.09375 L 10.28125 -5.25 L 15.25 -15.09375 L 18.71875 -15.09375 L 19.046875 0 L 14.9375 0 L 14.8125 -6.3125 L 11.578125 0 L 8.609375 0 L 5.390625 -6.203125 L 5.203125 0 Z M 1.3125 0 "/></g></g></g><g fill="#3c6aaf" fill-opacity="1"><g transform="translate(153.972449, 21.566849)"><g><path d="M 12.28125 -11.453125 L 5.46875 -11.453125 L 5.46875 -9.390625 L 11.734375 -9.390625 L 11.734375 -5.765625 L 5.46875 -5.765625 L 5.46875 -3.640625 L 12.453125 -3.640625 L 12.203125 0 L 1.28125 0 L 1.28125 -15.09375 L 12.28125 -15.09375 Z M 12.28125 -11.453125 "/></g></g></g><g fill="#3c6aaf" fill-opacity="1"><g transform="translate(170.95163, 21.566849)"><g><path d="M 10.90625 -15.09375 L 14.984375 -15.09375 L 14.984375 0 L 11.203125 0 L 5.359375 -8.125 L 5.359375 0 L 1.28125 0 L 1.28125 -15.09375 L 5.0625 -15.09375 L 10.90625 -6.984375 Z M 10.90625 -15.09375 "/></g></g></g><g fill="#3c6aaf" fill-opacity="1"><g transform="translate(191.543197, 21.566849)"><g><path d="M 13.65625 -15.09375 L 13.046875 -11.390625 L 8.625 -11.390625 L 8.625 0 L 4.375 0 L 4.375 -11.390625 L -0.34375 -11.390625 L -0.34375 -15.09375 Z M 13.65625 -15.09375 "/></g></g></g><g fill="#3c6aaf" fill-opacity="1"><g transform="translate(208.862363, 21.566849)"><g><path d="M 6.359375 0.21875 C 4.453125 0.21875 2.96875 -0.179688 1.90625 -0.984375 C 0.84375 -1.796875 0.242188 -2.976562 0.109375 -4.53125 L 4.03125 -5.09375 C 4.0625 -4.5625 4.300781 -4.128906 4.75 -3.796875 C 5.195312 -3.460938 5.773438 -3.296875 6.484375 -3.296875 C 7.785156 -3.296875 8.4375 -3.632812 8.4375 -4.3125 C 8.4375 -4.625 8.253906 -4.875 7.890625 -5.0625 C 7.535156 -5.257812 6.945312 -5.457031 6.125 -5.65625 C 4.363281 -6.082031 3.070312 -6.648438 2.25 -7.359375 C 1.425781 -8.066406 1.023438 -9.0625 1.046875 -10.34375 C 1.054688 -11.320312 1.3125 -12.179688 1.8125 -12.921875 C 2.320312 -13.671875 3.03125 -14.253906 3.9375 -14.671875 C 4.851562 -15.085938 5.925781 -15.296875 7.15625 -15.296875 C 8.675781 -15.296875 9.925781 -14.910156 10.90625 -14.140625 C 11.894531 -13.378906 12.457031 -12.34375 12.59375 -11.03125 L 8.875 -10.390625 C 8.8125 -10.796875 8.597656 -11.128906 8.234375 -11.390625 C 7.867188 -11.660156 7.429688 -11.796875 6.921875 -11.796875 C 6.441406 -11.796875 6.054688 -11.695312 5.765625 -11.5 C 5.472656 -11.3125 5.328125 -11.054688 5.328125 -10.734375 C 5.328125 -10.429688 5.472656 -10.171875 5.765625 -9.953125 C 6.054688 -9.734375 6.609375 -9.523438 7.421875 -9.328125 C 8.578125 -9.046875 9.546875 -8.722656 10.328125 -8.359375 C 11.117188 -7.992188 11.71875 -7.53125 12.125 -6.96875 C 12.53125 -6.40625 12.734375 -5.660156 12.734375 -4.734375 C 12.734375 -3.753906 12.46875 -2.894531 11.9375 -2.15625 C 11.40625 -1.414062 10.660156 -0.832031 9.703125 -0.40625 C 8.742188 0.0078125 7.628906 0.21875 6.359375 0.21875 Z M 6.359375 0.21875 "/></g></g></g><g fill="#3c6aaf" fill-opacity="1"><g transform="translate(6.62708, 31.981366)"><g><path d="M 4.203125 -3.890625 L 2.640625 -3.890625 L 2.640625 0 L 1.71875 0 L 1.71875 -3.890625 L 0.15625 -3.890625 L 0.15625 -4.609375 L 4.203125 -4.609375 Z M 4.203125 -3.890625 "/></g></g></g><g fill="#3c6aaf" fill-opacity="1"><g transform="translate(15.43489, 31.981366)"><g><path d="M 3.921875 -0.734375 L 3.921875 0 L 0.59375 0 L 0.59375 -4.609375 L 3.84375 -4.609375 L 3.84375 -3.890625 L 1.515625 -3.890625 L 1.515625 -2.671875 L 3.6875 -2.671875 L 3.6875 -1.9375 L 1.515625 -1.9375 L 1.515625 -0.734375 Z M 3.921875 -0.734375 "/></g></g></g><g fill="#3c6aaf" fill-opacity="1"><g transform="translate(24.195978, 31.981366)"><g><path d="M 4.640625 0 L 3.375 0 L 1.484375 -3.5 C 1.503906 -3.082031 1.515625 -2.609375 1.515625 -2.078125 L 1.515625 0 L 0.59375 0 L 0.59375 -4.609375 L 1.8125 -4.609375 L 3.75 -1.046875 C 3.726562 -1.453125 3.71875 -1.929688 3.71875 -2.484375 L 3.71875 -4.609375 L 4.625 -4.609375 Z M 4.640625 0 "/></g></g></g><g fill="#3c6aaf" fill-opacity="1"><g transform="translate(33.918285, 31.981366)"><g><path d="M 3.09375 -1.390625 L 1.546875 -1.390625 L 1.078125 0 L 0.09375 0 L 1.765625 -4.609375 L 2.921875 -4.609375 L 4.546875 0 L 3.546875 0 Z M 2.328125 -3.8125 L 1.78125 -2.109375 L 2.859375 -2.109375 Z M 2.328125 -3.8125 "/></g></g></g><g fill="#3c6aaf" fill-opacity="1"><g transform="translate(43.079882, 31.981366)"><g><path d="M 4.640625 0 L 3.375 0 L 1.484375 -3.5 C 1.503906 -3.082031 1.515625 -2.609375 1.515625 -2.078125 L 1.515625 0 L 0.59375 0 L 0.59375 -4.609375 L 1.8125 -4.609375 L 3.75 -1.046875 C 3.726562 -1.453125 3.71875 -1.929688 3.71875 -2.484375 L 3.71875 -4.609375 L 4.625 -4.609375 Z M 4.640625 0 "/></g></g></g><g fill="#3c6aaf" fill-opacity="1"><g transform="translate(52.802189, 31.981366)"><g><path d="M 4.203125 -3.890625 L 2.640625 -3.890625 L 2.640625 0 L 1.71875 0 L 1.71875 -3.890625 L 0.15625 -3.890625 L 0.15625 -4.609375 L 4.203125 -4.609375 Z M 4.203125 -3.890625 "/></g></g></g><g fill="#3c6aaf" fill-opacity="1"><g transform="translate(61.609999, 31.981366)"><g/></g></g><g fill="#3c6aaf" fill-opacity="1"><g transform="translate(67.554173, 31.981366)"><g><path d="M 5.5625 -4.609375 L 5.5625 0 L 4.640625 0 L 4.640625 -2.125 C 4.640625 -2.851562 4.644531 -3.378906 4.65625 -3.703125 C 4.53125 -3.171875 4.382812 -2.648438 4.21875 -2.140625 L 3.578125 0 L 2.578125 0 L 1.921875 -2.140625 C 1.742188 -2.703125 1.601562 -3.222656 1.5 -3.703125 C 1.507812 -3.378906 1.515625 -2.851562 1.515625 -2.125 L 1.515625 0 L 0.59375 0 L 0.59375 -4.609375 L 2.046875 -4.609375 L 3.09375 -0.84375 L 4.125 -4.609375 Z M 5.5625 -4.609375 "/></g></g></g><g fill="#3c6aaf" fill-opacity="1"><g transform="translate(78.190978, 31.981366)"><g><path d="M 3.09375 -1.390625 L 1.546875 -1.390625 L 1.078125 0 L 0.09375 0 L 1.765625 -4.609375 L 2.921875 -4.609375 L 4.546875 0 L 3.546875 0 Z M 2.328125 -3.8125 L 1.78125 -2.109375 L 2.859375 -2.109375 Z M 2.328125 -3.8125 "/></g></g></g><g fill="#3c6aaf" fill-opacity="1"><g transform="translate(87.352575, 31.981366)"><g><path d="M 4.640625 0 L 3.375 0 L 1.484375 -3.5 C 1.503906 -3.082031 1.515625 -2.609375 1.515625 -2.078125 L 1.515625 0 L 0.59375 0 L 0.59375 -4.609375 L 1.8125 -4.609375 L 3.75 -1.046875 C 3.726562 -1.453125 3.71875 -1.929688 3.71875 -2.484375 L 3.71875 -4.609375 L 4.625 -4.609375 Z M 4.640625 0 "/></g></g></g><g fill="#3c6aaf" fill-opacity="1"><g transform="translate(97.074882, 31.981366)"><g><path d="M 3.09375 -1.390625 L 1.546875 -1.390625 L 1.078125 0 L 0.09375 0 L 1.765625 -4.609375 L 2.921875 -4.609375 L 4.546875 0 L 3.546875 0 Z M 2.328125 -3.8125 L 1.78125 -2.109375 L 2.859375 -2.109375 Z M 2.328125 -3.8125 "/></g></g></g><g fill="#3c6aaf" fill-opacity="1"><g transform="translate(106.236479, 31.981366)"><g><path d="M 2.703125 -2.34375 L 4.5625 -2.34375 L 4.5625 0 L 3.8125 0 L 3.75 -0.75 L 3.546875 -0.28125 C 3.296875 -0.03125 2.921875 0.09375 2.421875 0.09375 C 1.785156 0.09375 1.28125 -0.117188 0.90625 -0.546875 C 0.53125 -0.972656 0.34375 -1.550781 0.34375 -2.28125 C 0.34375 -3.007812 0.554688 -3.59375 0.984375 -4.03125 C 1.410156 -4.476562 1.953125 -4.703125 2.609375 -4.703125 C 3.210938 -4.703125 3.679688 -4.554688 4.015625 -4.265625 C 4.359375 -3.972656 4.550781 -3.585938 4.59375 -3.109375 L 4.609375 -3.046875 L 3.6875 -3.046875 L 3.671875 -3.109375 C 3.546875 -3.710938 3.1875 -4.015625 2.59375 -4.015625 C 2.21875 -4.015625 1.910156 -3.863281 1.671875 -3.5625 C 1.429688 -3.257812 1.3125 -2.847656 1.3125 -2.328125 C 1.3125 -1.773438 1.425781 -1.347656 1.65625 -1.046875 C 1.894531 -0.742188 2.195312 -0.59375 2.5625 -0.59375 C 2.863281 -0.59375 3.113281 -0.679688 3.3125 -0.859375 C 3.507812 -1.046875 3.628906 -1.300781 3.671875 -1.625 L 2.703125 -1.625 Z M 2.703125 -2.34375 "/></g></g></g><g fill="#3c6aaf" fill-opacity="1"><g transform="translate(115.805257, 31.981366)"><g><path d="M 3.921875 -0.734375 L 3.921875 0 L 0.59375 0 L 0.59375 -4.609375 L 3.84375 -4.609375 L 3.84375 -3.890625 L 1.515625 -3.890625 L 1.515625 -2.671875 L 3.6875 -2.671875 L 3.6875 -1.9375 L 1.515625 -1.9375 L 1.515625 -0.734375 Z M 3.921875 -0.734375 "/></g></g></g><g fill="#3c6aaf" fill-opacity="1"><g transform="translate(124.566339, 31.981366)"><g><path d="M 5.5625 -4.609375 L 5.5625 0 L 4.640625 0 L 4.640625 -2.125 C 4.640625 -2.851562 4.644531 -3.378906 4.65625 -3.703125 C 4.53125 -3.171875 4.382812 -2.648438 4.21875 -2.140625 L 3.578125 0 L 2.578125 0 L 1.921875 -2.140625 C 1.742188 -2.703125 1.601562 -3.222656 1.5 -3.703125 C 1.507812 -3.378906 1.515625 -2.851562 1.515625 -2.125 L 1.515625 0 L 0.59375 0 L 0.59375 -4.609375 L 2.046875 -4.609375 L 3.09375 -0.84375 L 4.125 -4.609375 Z M 5.5625 -4.609375 "/></g></g></g><g fill="#3c6aaf" fill-opacity="1"><g transform="translate(135.203143, 31.981366)"><g><path d="M 3.921875 -0.734375 L 3.921875 0 L 0.59375 0 L 0.59375 -4.609375 L 3.84375 -4.609375 L 3.84375 -3.890625 L 1.515625 -3.890625 L 1.515625 -2.671875 L 3.6875 -2.671875 L 3.6875 -1.9375 L 1.515625 -1.9375 L 1.515625 -0.734375 Z M 3.921875 -0.734375 "/></g></g></g><g fill="#3c6aaf" fill-opacity="1"><g transform="translate(143.964238, 31.981366)"><g><path d="M 4.640625 0 L 3.375 0 L 1.484375 -3.5 C 1.503906 -3.082031 1.515625 -2.609375 1.515625 -2.078125 L 1.515625 0 L 0.59375 0 L 0.59375 -4.609375 L 1.8125 -4.609375 L 3.75 -1.046875 C 3.726562 -1.453125 3.71875 -1.929688 3.71875 -2.484375 L 3.71875 -4.609375 L 4.625 -4.609375 Z M 4.640625 0 "/></g></g></g><g fill="#3c6aaf" fill-opacity="1"><g transform="translate(153.686539, 31.981366)"><g><path d="M 4.203125 -3.890625 L 2.640625 -3.890625 L 2.640625 0 L 1.71875 0 L 1.71875 -3.890625 L 0.15625 -3.890625 L 0.15625 -4.609375 L 4.203125 -4.609375 Z M 4.203125 -3.890625 "/></g></g></g><g fill="#3c6aaf" fill-opacity="1"><g transform="translate(162.494349, 31.981366)"><g/></g></g><g fill="#3c6aaf" fill-opacity="1"><g transform="translate(168.438529, 31.981366)"><g><path d="M 2.125 -4.703125 C 2.644531 -4.703125 3.046875 -4.566406 3.328125 -4.296875 C 3.609375 -4.035156 3.773438 -3.6875 3.828125 -3.25 L 2.875 -3.25 C 2.851562 -3.488281 2.773438 -3.675781 2.640625 -3.8125 C 2.503906 -3.945312 2.320312 -4.015625 2.09375 -4.015625 C 1.894531 -4.015625 1.734375 -3.96875 1.609375 -3.875 C 1.492188 -3.78125 1.4375 -3.644531 1.4375 -3.46875 C 1.4375 -3.269531 1.507812 -3.113281 1.65625 -3 C 1.800781 -2.882812 2.054688 -2.785156 2.421875 -2.703125 C 2.921875 -2.585938 3.289062 -2.410156 3.53125 -2.171875 C 3.769531 -1.941406 3.890625 -1.640625 3.890625 -1.265625 C 3.890625 -0.847656 3.722656 -0.515625 3.390625 -0.265625 C 3.066406 -0.0234375 2.664062 0.09375 2.1875 0.09375 C 1.625 0.09375 1.175781 -0.0234375 0.84375 -0.265625 C 0.507812 -0.515625 0.320312 -0.878906 0.28125 -1.359375 L 1.21875 -1.359375 C 1.269531 -1.117188 1.378906 -0.929688 1.546875 -0.796875 C 1.722656 -0.660156 1.929688 -0.59375 2.171875 -0.59375 C 2.390625 -0.59375 2.566406 -0.644531 2.703125 -0.75 C 2.847656 -0.851562 2.921875 -0.992188 2.921875 -1.171875 C 2.921875 -1.367188 2.851562 -1.523438 2.71875 -1.640625 C 2.582031 -1.765625 2.347656 -1.867188 2.015625 -1.953125 C 1.492188 -2.078125 1.101562 -2.238281 0.84375 -2.4375 C 0.59375 -2.644531 0.46875 -2.945312 0.46875 -3.34375 C 0.46875 -3.757812 0.628906 -4.085938 0.953125 -4.328125 C 1.273438 -4.578125 1.664062 -4.703125 2.125 -4.703125 Z M 2.125 -4.703125 "/></g></g></g><g fill="#3c6aaf" fill-opacity="1"><g transform="translate(177.146224, 31.981366)"><g><path d="M 2.65625 -1.78125 L 2.65625 0 L 1.734375 0 L 1.734375 -1.78125 L 0.109375 -4.609375 L 1.140625 -4.609375 L 2.21875 -2.59375 L 3.265625 -4.609375 L 4.28125 -4.609375 Z M 2.65625 -1.78125 "/></g></g></g><g fill="#3c6aaf" fill-opacity="1"><g transform="translate(185.974063, 31.981366)"><g><path d="M 2.125 -4.703125 C 2.644531 -4.703125 3.046875 -4.566406 3.328125 -4.296875 C 3.609375 -4.035156 3.773438 -3.6875 3.828125 -3.25 L 2.875 -3.25 C 2.851562 -3.488281 2.773438 -3.675781 2.640625 -3.8125 C 2.503906 -3.945312 2.320312 -4.015625 2.09375 -4.015625 C 1.894531 -4.015625 1.734375 -3.96875 1.609375 -3.875 C 1.492188 -3.78125 1.4375 -3.644531 1.4375 -3.46875 C 1.4375 -3.269531 1.507812 -3.113281 1.65625 -3 C 1.800781 -2.882812 2.054688 -2.785156 2.421875 -2.703125 C 2.921875 -2.585938 3.289062 -2.410156 3.53125 -2.171875 C 3.769531 -1.941406 3.890625 -1.640625 3.890625 -1.265625 C 3.890625 -0.847656 3.722656 -0.515625 3.390625 -0.265625 C 3.066406 -0.0234375 2.664062 0.09375 2.1875 0.09375 C 1.625 0.09375 1.175781 -0.0234375 0.84375 -0.265625 C 0.507812 -0.515625 0.320312 -0.878906 0.28125 -1.359375 L 1.21875 -1.359375 C 1.269531 -1.117188 1.378906 -0.929688 1.546875 -0.796875 C 1.722656 -0.660156 1.929688 -0.59375 2.171875 -0.59375 C 2.390625 -0.59375 2.566406 -0.644531 2.703125 -0.75 C 2.847656 -0.851562 2.921875 -0.992188 2.921875 -1.171875 C 2.921875 -1.367188 2.851562 -1.523438 2.71875 -1.640625 C 2.582031 -1.765625 2.347656 -1.867188 2.015625 -1.953125 C 1.492188 -2.078125 1.101562 -2.238281 0.84375 -2.4375 C 0.59375 -2.644531 0.46875 -2.945312 0.46875 -3.34375 C 0.46875 -3.757812 0.628906 -4.085938 0.953125 -4.328125 C 1.273438 -4.578125 1.664062 -4.703125 2.125 -4.703125 Z M 2.125 -4.703125 "/></g></g></g><g fill="#3c6aaf" fill-opacity="1"><g transform="translate(194.681758, 31.981366)"><g><path d="M 4.203125 -3.890625 L 2.640625 -3.890625 L 2.640625 0 L 1.71875 0 L 1.71875 -3.890625 L 0.15625 -3.890625 L 0.15625 -4.609375 L 4.203125 -4.609375 Z M 4.203125 -3.890625 "/></g></g></g><g fill="#3c6aaf" fill-opacity="1"><g transform="translate(203.489568, 31.981366)"><g><path d="M 3.921875 -0.734375 L 3.921875 0 L 0.59375 0 L 0.59375 -4.609375 L 3.84375 -4.609375 L 3.84375 -3.890625 L 1.515625 -3.890625 L 1.515625 -2.671875 L 3.6875 -2.671875 L 3.6875 -1.9375 L 1.515625 -1.9375 L 1.515625 -0.734375 Z M 3.921875 -0.734375 "/></g></g></g><g fill="#3c6aaf" fill-opacity="1"><g transform="translate(212.250649, 31.981366)"><g><path d="M 5.5625 -4.609375 L 5.5625 0 L 4.640625 0 L 4.640625 -2.125 C 4.640625 -2.851562 4.644531 -3.378906 4.65625 -3.703125 C 4.53125 -3.171875 4.382812 -2.648438 4.21875 -2.140625 L 3.578125 0 L 2.578125 0 L 1.921875 -2.140625 C 1.742188 -2.703125 1.601562 -3.222656 1.5 -3.703125 C 1.507812 -3.378906 1.515625 -2.851562 1.515625 -2.125 L 1.515625 0 L 0.59375 0 L 0.59375 -4.609375 L 2.046875 -4.609375 L 3.09375 -0.84375 L 4.125 -4.609375 Z M 5.5625 -4.609375 "/></g></g></g></svg>