<svg xmlns="http://www.w3.org/2000/svg" xmlns:xlink="http://www.w3.org/1999/xlink" width="300" zoomAndPan="magnify" viewBox="0 0 224.87999 37.5" height="50" preserveAspectRatio="xMidYMid meet" version="1.0"><defs><g/><clipPath id="327922e69c"><path d="M 2.613281 1.429688 L 34.972656 1.429688 L 34.972656 35.761719 L 2.613281 35.761719 Z M 2.613281 1.429688 " clip-rule="nonzero"/></clipPath></defs><g clip-path="url(#327922e69c)"><path fill="#3c6aaf" d="M 34.863281 18.941406 L 34.863281 11.738281 L 30.519531 8.9375 L 30.519531 4.226562 L 26.179688 4.226562 L 26.179688 6.140625 L 18.871094 1.429688 L 2.617188 11.726562 L 2.617188 35.578125 L 34.863281 35.578125 L 34.863281 26.097656 L 30.148438 26.097656 L 30.148438 30.859375 L 7.332031 30.859375 L 7.332031 14.320312 L 18.847656 7.023438 L 30.148438 14.308594 L 30.148438 18.941406 Z M 34.863281 18.941406 " fill-opacity="1" fill-rule="nonzero"/></g><g fill="#3c6aaf" fill-opacity="1"><g transform="translate(37.107214, 22.659247)"><g><path d="M 12.8125 -2.53125 C 12.257812 -1.65625 11.5 -0.976562 10.53125 -0.5 C 9.570312 -0.03125 8.507812 0.203125 7.34375 0.203125 C 5.894531 0.203125 4.660156 -0.046875 3.640625 -0.546875 C 2.617188 -1.054688 1.835938 -1.785156 1.296875 -2.734375 C 0.753906 -3.679688 0.484375 -4.804688 0.484375 -6.109375 C 0.484375 -7.492188 0.78125 -8.691406 1.375 -9.703125 C 1.96875 -10.722656 2.796875 -11.519531 3.859375 -12.09375 C 4.929688 -12.664062 6.175781 -12.953125 7.59375 -12.953125 C 8.832031 -12.953125 9.878906 -12.734375 10.734375 -12.296875 C 11.585938 -11.859375 12.285156 -11.179688 12.828125 -10.265625 L 10.109375 -8.34375 C 9.878906 -8.789062 9.523438 -9.140625 9.046875 -9.390625 C 8.566406 -9.648438 8.039062 -9.78125 7.46875 -9.78125 C 6.40625 -9.789062 5.582031 -9.460938 5 -8.796875 C 4.425781 -8.140625 4.140625 -7.273438 4.140625 -6.203125 C 4.140625 -5.179688 4.40625 -4.382812 4.9375 -3.8125 C 5.46875 -3.25 6.273438 -2.96875 7.359375 -2.96875 C 8.597656 -2.96875 9.53125 -3.507812 10.15625 -4.59375 Z M 12.8125 -2.53125 "/></g></g></g><g fill="#3c6aaf" fill-opacity="1"><g transform="translate(53.243038, 22.659247)"><g><path d="M 1.078125 -3.171875 L 1.078125 -6.125 L 7.0625 -6.125 L 7.0625 -3.171875 Z M 1.078125 -3.171875 "/></g></g></g><g fill="#3c6aaf" fill-opacity="1"><g transform="translate(65.061634, 22.659247)"><g><path d="M -0.703125 0 L 4.921875 -12.765625 L 7.90625 -12.765625 L 13.34375 0 L 9.71875 0 L 8.8125 -2.28125 L 3.859375 -2.28125 L 2.9375 0 Z M 5.09375 -5.25 L 7.625 -5.25 L 6.390625 -8.375 Z M 5.09375 -5.25 "/></g></g></g><g fill="#3c6aaf" fill-opacity="1"><g transform="translate(81.449299, 22.659247)"><g><path d="M 4.609375 0 L 1.078125 0 L 1.078125 -12.765625 L 5.921875 -12.765625 C 7.898438 -12.765625 9.359375 -12.40625 10.296875 -11.6875 C 11.234375 -10.976562 11.703125 -9.941406 11.703125 -8.578125 C 11.703125 -7.671875 11.457031 -6.882812 10.96875 -6.21875 C 10.476562 -5.5625 9.78125 -5.054688 8.875 -4.703125 C 7.976562 -4.347656 6.910156 -4.171875 5.671875 -4.171875 L 4.609375 -4.171875 Z M 6.03125 -9.875 L 4.609375 -9.875 L 4.609375 -7.078125 L 5.84375 -7.078125 C 6.582031 -7.078125 7.144531 -7.191406 7.53125 -7.421875 C 7.925781 -7.648438 8.125 -8.023438 8.125 -8.546875 C 8.125 -8.992188 7.957031 -9.328125 7.625 -9.546875 C 7.289062 -9.765625 6.757812 -9.875 6.03125 -9.875 Z M 6.03125 -9.875 "/></g></g></g><g fill="#3c6aaf" fill-opacity="1"><g transform="translate(96.937541, 22.659247)"><g><path d="M -0.703125 0 L 4.921875 -12.765625 L 7.90625 -12.765625 L 13.34375 0 L 9.71875 0 L 8.8125 -2.28125 L 3.859375 -2.28125 L 2.9375 0 Z M 5.09375 -5.25 L 7.625 -5.25 L 6.390625 -8.375 Z M 5.09375 -5.25 "/></g></g></g><g fill="#3c6aaf" fill-opacity="1"><g transform="translate(113.325205, 22.659247)"><g><path d="M 12.34375 -3.3125 L 13.171875 -0.546875 C 12.878906 -0.316406 12.492188 -0.132812 12.015625 0 C 11.535156 0.144531 11.050781 0.21875 10.5625 0.21875 C 9.613281 0.21875 8.828125 0.046875 8.203125 -0.296875 C 7.578125 -0.648438 7.070312 -1.144531 6.6875 -1.78125 L 5.5 -3.78125 C 5.351562 -4.019531 5.210938 -4.195312 5.078125 -4.3125 C 4.953125 -4.4375 4.796875 -4.515625 4.609375 -4.546875 L 4.609375 0 L 1.078125 0 L 1.078125 -12.765625 L 5.390625 -12.765625 C 7.359375 -12.765625 8.8125 -12.390625 9.75 -11.640625 C 10.695312 -10.898438 11.171875 -9.875 11.171875 -8.5625 C 11.171875 -7.625 10.898438 -6.847656 10.359375 -6.234375 C 9.816406 -5.617188 9.101562 -5.179688 8.21875 -4.921875 C 8.675781 -4.785156 9.035156 -4.519531 9.296875 -4.125 L 9.625 -3.640625 C 9.925781 -3.171875 10.382812 -2.9375 11 -2.9375 C 11.226562 -2.9375 11.453125 -2.960938 11.671875 -3.015625 C 11.898438 -3.066406 12.125 -3.164062 12.34375 -3.3125 Z M 5.359375 -9.875 L 4.609375 -9.875 L 4.609375 -7.34375 L 5.515625 -7.34375 C 6.296875 -7.34375 6.835938 -7.445312 7.140625 -7.65625 C 7.453125 -7.863281 7.609375 -8.1875 7.609375 -8.625 C 7.609375 -9.113281 7.398438 -9.441406 6.984375 -9.609375 C 6.566406 -9.785156 6.023438 -9.875 5.359375 -9.875 Z M 5.359375 -9.875 "/></g></g></g><g fill="#3c6aaf" fill-opacity="1"><g transform="translate(129.335108, 22.659247)"><g><path d="M 11.5625 -12.765625 L 11.046875 -9.640625 L 7.296875 -9.640625 L 7.296875 0 L 3.703125 0 L 3.703125 -9.640625 L -0.28125 -9.640625 L -0.28125 -12.765625 Z M 11.5625 -12.765625 "/></g></g></g><g fill="#3c6aaf" fill-opacity="1"><g transform="translate(143.995881, 22.659247)"><g><path d="M 1.109375 0 L 1.5 -12.765625 L 4.421875 -12.765625 L 8.703125 -4.4375 L 12.90625 -12.765625 L 15.84375 -12.765625 L 16.109375 0 L 12.640625 0 L 12.53125 -5.34375 L 9.796875 0 L 7.28125 0 L 4.5625 -5.25 L 4.40625 0 Z M 1.109375 0 "/></g></g></g><g fill="#3c6aaf" fill-opacity="1"><g transform="translate(164.916634, 22.659247)"><g><path d="M 10.390625 -9.6875 L 4.625 -9.6875 L 4.625 -7.953125 L 9.921875 -7.953125 L 9.921875 -4.875 L 4.625 -4.875 L 4.625 -3.078125 L 10.53125 -3.078125 L 10.328125 0 L 1.078125 0 L 1.078125 -12.765625 L 10.390625 -12.765625 Z M 10.390625 -9.6875 "/></g></g></g><g fill="#3c6aaf" fill-opacity="1"><g transform="translate(179.289589, 22.659247)"><g><path d="M 9.21875 -12.765625 L 12.671875 -12.765625 L 12.671875 0 L 9.484375 0 L 4.53125 -6.875 L 4.53125 0 L 1.078125 0 L 1.078125 -12.765625 L 4.28125 -12.765625 L 9.21875 -5.921875 Z M 9.21875 -12.765625 "/></g></g></g><g fill="#3c6aaf" fill-opacity="1"><g transform="translate(196.720574, 22.659247)"><g><path d="M 11.5625 -12.765625 L 11.046875 -9.640625 L 7.296875 -9.640625 L 7.296875 0 L 3.703125 0 L 3.703125 -9.640625 L -0.28125 -9.640625 L -0.28125 -12.765625 Z M 11.5625 -12.765625 "/></g></g></g><g fill="#3c6aaf" fill-opacity="1"><g transform="translate(211.38134, 22.659247)"><g><path d="M 5.375 0.1875 C 3.769531 0.1875 2.515625 -0.15625 1.609375 -0.84375 C 0.710938 -1.53125 0.207031 -2.523438 0.09375 -3.828125 L 3.421875 -4.3125 C 3.441406 -3.863281 3.640625 -3.492188 4.015625 -3.203125 C 4.398438 -2.921875 4.890625 -2.78125 5.484375 -2.78125 C 6.585938 -2.78125 7.140625 -3.070312 7.140625 -3.65625 C 7.140625 -3.914062 6.984375 -4.125 6.671875 -4.28125 C 6.367188 -4.445312 5.867188 -4.613281 5.171875 -4.78125 C 3.691406 -5.144531 2.601562 -5.625 1.90625 -6.21875 C 1.207031 -6.820312 0.863281 -7.671875 0.875 -8.765625 C 0.894531 -9.585938 1.113281 -10.3125 1.53125 -10.9375 C 1.957031 -11.570312 2.554688 -12.066406 3.328125 -12.421875 C 4.109375 -12.773438 5.019531 -12.953125 6.0625 -12.953125 C 7.34375 -12.953125 8.398438 -12.625 9.234375 -11.96875 C 10.066406 -11.320312 10.546875 -10.441406 10.671875 -9.328125 L 7.515625 -8.796875 C 7.453125 -9.140625 7.269531 -9.421875 6.96875 -9.640625 C 6.664062 -9.867188 6.296875 -9.984375 5.859375 -9.984375 C 5.453125 -9.984375 5.125 -9.898438 4.875 -9.734375 C 4.632812 -9.578125 4.515625 -9.359375 4.515625 -9.078125 C 4.515625 -8.828125 4.632812 -8.609375 4.875 -8.421875 C 5.125 -8.234375 5.59375 -8.054688 6.28125 -7.890625 C 7.257812 -7.648438 8.082031 -7.378906 8.75 -7.078125 C 9.414062 -6.773438 9.914062 -6.378906 10.25 -5.890625 C 10.59375 -5.410156 10.765625 -4.785156 10.765625 -4.015625 C 10.765625 -3.179688 10.539062 -2.445312 10.09375 -1.8125 C 9.644531 -1.1875 9.015625 -0.695312 8.203125 -0.34375 C 7.398438 0.0078125 6.457031 0.1875 5.375 0.1875 Z M 5.375 0.1875 "/></g></g></g><g fill="#3c6aaf" fill-opacity="1"><g transform="translate(39.293528, 34.169197)"><g><path d="M 3.59375 -3.3125 L 2.25 -3.3125 L 2.25 0 L 1.46875 0 L 1.46875 -3.3125 L 0.125 -3.3125 L 0.125 -3.9375 L 3.59375 -3.9375 Z M 3.59375 -3.3125 "/></g></g></g><g fill="#3c6aaf" fill-opacity="1"><g transform="translate(46.824149, 34.169197)"><g><path d="M 3.34375 -0.625 L 3.34375 0 L 0.5 0 L 0.5 -3.9375 L 3.296875 -3.9375 L 3.296875 -3.3125 L 1.296875 -3.3125 L 1.296875 -2.28125 L 3.140625 -2.28125 L 3.140625 -1.65625 L 1.296875 -1.65625 L 1.296875 -0.625 Z M 3.34375 -0.625 "/></g></g></g><g fill="#3c6aaf" fill-opacity="1"><g transform="translate(54.314818, 34.169197)"><g><path d="M 3.96875 0 L 2.890625 0 L 1.265625 -2.984375 C 1.285156 -2.628906 1.296875 -2.226562 1.296875 -1.78125 L 1.296875 0 L 0.5 0 L 0.5 -3.9375 L 1.546875 -3.9375 L 3.203125 -0.890625 C 3.179688 -1.242188 3.171875 -1.65625 3.171875 -2.125 L 3.171875 -3.9375 L 3.953125 -3.9375 Z M 3.96875 0 "/></g></g></g><g fill="#3c6aaf" fill-opacity="1"><g transform="translate(62.627346, 34.169197)"><g><path d="M 2.640625 -1.1875 L 1.3125 -1.1875 L 0.921875 0 L 0.078125 0 L 1.5 -3.9375 L 2.5 -3.9375 L 3.890625 0 L 3.03125 0 Z M 1.984375 -3.265625 L 1.515625 -1.8125 L 2.4375 -1.8125 Z M 1.984375 -3.265625 "/></g></g></g><g fill="#3c6aaf" fill-opacity="1"><g transform="translate(70.460455, 34.169197)"><g><path d="M 3.96875 0 L 2.890625 0 L 1.265625 -2.984375 C 1.285156 -2.628906 1.296875 -2.226562 1.296875 -1.78125 L 1.296875 0 L 0.5 0 L 0.5 -3.9375 L 1.546875 -3.9375 L 3.203125 -0.890625 C 3.179688 -1.242188 3.171875 -1.65625 3.171875 -2.125 L 3.171875 -3.9375 L 3.953125 -3.9375 Z M 3.96875 0 "/></g></g></g><g fill="#3c6aaf" fill-opacity="1"><g transform="translate(78.772984, 34.169197)"><g><path d="M 3.59375 -3.3125 L 2.25 -3.3125 L 2.25 0 L 1.46875 0 L 1.46875 -3.3125 L 0.125 -3.3125 L 0.125 -3.9375 L 3.59375 -3.9375 Z M 3.59375 -3.3125 "/></g></g></g><g fill="#3c6aaf" fill-opacity="1"><g transform="translate(86.303606, 34.169197)"><g/></g></g><g fill="#3c6aaf" fill-opacity="1"><g transform="translate(91.385771, 34.169197)"><g><path d="M 4.75 -3.9375 L 4.75 0 L 3.96875 0 L 3.96875 -1.8125 C 3.96875 -2.4375 3.96875 -2.890625 3.96875 -3.171875 C 3.863281 -2.710938 3.742188 -2.265625 3.609375 -1.828125 L 3.0625 0 L 2.203125 0 L 1.640625 -1.828125 C 1.492188 -2.316406 1.375 -2.757812 1.28125 -3.15625 C 1.289062 -2.882812 1.296875 -2.4375 1.296875 -1.8125 L 1.296875 0 L 0.5 0 L 0.5 -3.9375 L 1.75 -3.9375 L 2.640625 -0.71875 L 3.53125 -3.9375 Z M 4.75 -3.9375 "/></g></g></g><g fill="#3c6aaf" fill-opacity="1"><g transform="translate(100.48021, 34.169197)"><g><path d="M 2.640625 -1.1875 L 1.3125 -1.1875 L 0.921875 0 L 0.078125 0 L 1.5 -3.9375 L 2.5 -3.9375 L 3.890625 0 L 3.03125 0 Z M 1.984375 -3.265625 L 1.515625 -1.8125 L 2.4375 -1.8125 Z M 1.984375 -3.265625 "/></g></g></g><g fill="#3c6aaf" fill-opacity="1"><g transform="translate(108.313317, 34.169197)"><g><path d="M 3.96875 0 L 2.890625 0 L 1.265625 -2.984375 C 1.285156 -2.628906 1.296875 -2.226562 1.296875 -1.78125 L 1.296875 0 L 0.5 0 L 0.5 -3.9375 L 1.546875 -3.9375 L 3.203125 -0.890625 C 3.179688 -1.242188 3.171875 -1.65625 3.171875 -2.125 L 3.171875 -3.9375 L 3.953125 -3.9375 Z M 3.96875 0 "/></g></g></g><g fill="#3c6aaf" fill-opacity="1"><g transform="translate(116.625846, 34.169197)"><g><path d="M 2.640625 -1.1875 L 1.3125 -1.1875 L 0.921875 0 L 0.078125 0 L 1.5 -3.9375 L 2.5 -3.9375 L 3.890625 0 L 3.03125 0 Z M 1.984375 -3.265625 L 1.515625 -1.8125 L 2.4375 -1.8125 Z M 1.984375 -3.265625 "/></g></g></g><g fill="#3c6aaf" fill-opacity="1"><g transform="translate(124.458953, 34.169197)"><g><path d="M 2.3125 -2 L 3.890625 -2 L 3.890625 0 L 3.265625 0 L 3.203125 -0.640625 L 3.03125 -0.234375 C 2.8125 -0.0234375 2.492188 0.078125 2.078125 0.078125 C 1.523438 0.078125 1.085938 -0.101562 0.765625 -0.46875 C 0.453125 -0.832031 0.296875 -1.320312 0.296875 -1.9375 C 0.296875 -2.570312 0.476562 -3.078125 0.84375 -3.453125 C 1.207031 -3.828125 1.671875 -4.015625 2.234375 -4.015625 C 2.742188 -4.015625 3.140625 -3.890625 3.421875 -3.640625 C 3.710938 -3.390625 3.878906 -3.0625 3.921875 -2.65625 L 3.9375 -2.59375 L 3.140625 -2.59375 L 3.140625 -2.65625 C 3.035156 -3.164062 2.726562 -3.421875 2.21875 -3.421875 C 1.894531 -3.421875 1.628906 -3.289062 1.421875 -3.03125 C 1.222656 -2.78125 1.125 -2.429688 1.125 -1.984375 C 1.125 -1.515625 1.222656 -1.148438 1.421875 -0.890625 C 1.617188 -0.628906 1.878906 -0.5 2.203125 -0.5 C 2.453125 -0.5 2.660156 -0.578125 2.828125 -0.734375 C 2.992188 -0.890625 3.097656 -1.109375 3.140625 -1.390625 L 2.3125 -1.390625 Z M 2.3125 -2 "/></g></g></g><g fill="#3c6aaf" fill-opacity="1"><g transform="translate(132.640214, 34.169197)"><g><path d="M 3.34375 -0.625 L 3.34375 0 L 0.5 0 L 0.5 -3.9375 L 3.296875 -3.9375 L 3.296875 -3.3125 L 1.296875 -3.3125 L 1.296875 -2.28125 L 3.140625 -2.28125 L 3.140625 -1.65625 L 1.296875 -1.65625 L 1.296875 -0.625 Z M 3.34375 -0.625 "/></g></g></g><g fill="#3c6aaf" fill-opacity="1"><g transform="translate(140.130882, 34.169197)"><g><path d="M 4.75 -3.9375 L 4.75 0 L 3.96875 0 L 3.96875 -1.8125 C 3.96875 -2.4375 3.96875 -2.890625 3.96875 -3.171875 C 3.863281 -2.710938 3.742188 -2.265625 3.609375 -1.828125 L 3.0625 0 L 2.203125 0 L 1.640625 -1.828125 C 1.492188 -2.316406 1.375 -2.757812 1.28125 -3.15625 C 1.289062 -2.882812 1.296875 -2.4375 1.296875 -1.8125 L 1.296875 0 L 0.5 0 L 0.5 -3.9375 L 1.75 -3.9375 L 2.640625 -0.71875 L 3.53125 -3.9375 Z M 4.75 -3.9375 "/></g></g></g><g fill="#3c6aaf" fill-opacity="1"><g transform="translate(149.225317, 34.169197)"><g><path d="M 3.34375 -0.625 L 3.34375 0 L 0.5 0 L 0.5 -3.9375 L 3.296875 -3.9375 L 3.296875 -3.3125 L 1.296875 -3.3125 L 1.296875 -2.28125 L 3.140625 -2.28125 L 3.140625 -1.65625 L 1.296875 -1.65625 L 1.296875 -0.625 Z M 3.34375 -0.625 "/></g></g></g><g fill="#3c6aaf" fill-opacity="1"><g transform="translate(156.715992, 34.169197)"><g><path d="M 3.96875 0 L 2.890625 0 L 1.265625 -2.984375 C 1.285156 -2.628906 1.296875 -2.226562 1.296875 -1.78125 L 1.296875 0 L 0.5 0 L 0.5 -3.9375 L 1.546875 -3.9375 L 3.203125 -0.890625 C 3.179688 -1.242188 3.171875 -1.65625 3.171875 -2.125 L 3.171875 -3.9375 L 3.953125 -3.9375 Z M 3.96875 0 "/></g></g></g><g fill="#3c6aaf" fill-opacity="1"><g transform="translate(165.028514, 34.169197)"><g><path d="M 3.59375 -3.3125 L 2.25 -3.3125 L 2.25 0 L 1.46875 0 L 1.46875 -3.3125 L 0.125 -3.3125 L 0.125 -3.9375 L 3.59375 -3.9375 Z M 3.59375 -3.3125 "/></g></g></g><g fill="#3c6aaf" fill-opacity="1"><g transform="translate(172.559137, 34.169197)"><g/></g></g><g fill="#3c6aaf" fill-opacity="1"><g transform="translate(177.641304, 34.169197)"><g><path d="M 1.8125 -4.015625 C 2.257812 -4.015625 2.601562 -3.898438 2.84375 -3.671875 C 3.082031 -3.453125 3.222656 -3.15625 3.265625 -2.78125 L 2.46875 -2.78125 C 2.4375 -2.976562 2.363281 -3.132812 2.25 -3.25 C 2.144531 -3.363281 1.988281 -3.421875 1.78125 -3.421875 C 1.625 -3.421875 1.492188 -3.378906 1.390625 -3.296875 C 1.285156 -3.222656 1.234375 -3.109375 1.234375 -2.953125 C 1.234375 -2.785156 1.296875 -2.65625 1.421875 -2.5625 C 1.546875 -2.46875 1.757812 -2.382812 2.0625 -2.3125 C 2.5 -2.21875 2.816406 -2.066406 3.015625 -1.859375 C 3.222656 -1.660156 3.328125 -1.398438 3.328125 -1.078125 C 3.328125 -0.722656 3.1875 -0.441406 2.90625 -0.234375 C 2.625 -0.0234375 2.28125 0.078125 1.875 0.078125 C 1.394531 0.078125 1.007812 -0.0234375 0.71875 -0.234375 C 0.4375 -0.441406 0.273438 -0.75 0.234375 -1.15625 L 1.046875 -1.15625 C 1.085938 -0.945312 1.179688 -0.785156 1.328125 -0.671875 C 1.472656 -0.554688 1.648438 -0.5 1.859375 -0.5 C 2.046875 -0.5 2.195312 -0.546875 2.3125 -0.640625 C 2.4375 -0.734375 2.5 -0.851562 2.5 -1 C 2.5 -1.164062 2.4375 -1.300781 2.3125 -1.40625 C 2.195312 -1.507812 2 -1.597656 1.71875 -1.671875 C 1.28125 -1.773438 0.953125 -1.914062 0.734375 -2.09375 C 0.515625 -2.269531 0.40625 -2.523438 0.40625 -2.859375 C 0.40625 -3.210938 0.539062 -3.492188 0.8125 -3.703125 C 1.082031 -3.910156 1.414062 -4.015625 1.8125 -4.015625 Z M 1.8125 -4.015625 "/></g></g></g><g fill="#3c6aaf" fill-opacity="1"><g transform="translate(185.086309, 34.169197)"><g><path d="M 2.265625 -1.515625 L 2.265625 0 L 1.484375 0 L 1.484375 -1.515625 L 0.09375 -3.9375 L 0.984375 -3.9375 L 1.90625 -2.21875 L 2.78125 -3.9375 L 3.65625 -3.9375 Z M 2.265625 -1.515625 "/></g></g></g><g fill="#3c6aaf" fill-opacity="1"><g transform="translate(192.634055, 34.169197)"><g><path d="M 1.8125 -4.015625 C 2.257812 -4.015625 2.601562 -3.898438 2.84375 -3.671875 C 3.082031 -3.453125 3.222656 -3.15625 3.265625 -2.78125 L 2.46875 -2.78125 C 2.4375 -2.976562 2.363281 -3.132812 2.25 -3.25 C 2.144531 -3.363281 1.988281 -3.421875 1.78125 -3.421875 C 1.625 -3.421875 1.492188 -3.378906 1.390625 -3.296875 C 1.285156 -3.222656 1.234375 -3.109375 1.234375 -2.953125 C 1.234375 -2.785156 1.296875 -2.65625 1.421875 -2.5625 C 1.546875 -2.46875 1.757812 -2.382812 2.0625 -2.3125 C 2.5 -2.21875 2.816406 -2.066406 3.015625 -1.859375 C 3.222656 -1.660156 3.328125 -1.398438 3.328125 -1.078125 C 3.328125 -0.722656 3.1875 -0.441406 2.90625 -0.234375 C 2.625 -0.0234375 2.28125 0.078125 1.875 0.078125 C 1.394531 0.078125 1.007812 -0.0234375 0.71875 -0.234375 C 0.4375 -0.441406 0.273438 -0.75 0.234375 -1.15625 L 1.046875 -1.15625 C 1.085938 -0.945312 1.179688 -0.785156 1.328125 -0.671875 C 1.472656 -0.554688 1.648438 -0.5 1.859375 -0.5 C 2.046875 -0.5 2.195312 -0.546875 2.3125 -0.640625 C 2.4375 -0.734375 2.5 -0.851562 2.5 -1 C 2.5 -1.164062 2.4375 -1.300781 2.3125 -1.40625 C 2.195312 -1.507812 2 -1.597656 1.71875 -1.671875 C 1.28125 -1.773438 0.953125 -1.914062 0.734375 -2.09375 C 0.515625 -2.269531 0.40625 -2.523438 0.40625 -2.859375 C 0.40625 -3.210938 0.539062 -3.492188 0.8125 -3.703125 C 1.082031 -3.910156 1.414062 -4.015625 1.8125 -4.015625 Z M 1.8125 -4.015625 "/></g></g></g><g fill="#3c6aaf" fill-opacity="1"><g transform="translate(200.07906, 34.169197)"><g><path d="M 3.59375 -3.3125 L 2.25 -3.3125 L 2.25 0 L 1.46875 0 L 1.46875 -3.3125 L 0.125 -3.3125 L 0.125 -3.9375 L 3.59375 -3.9375 Z M 3.59375 -3.3125 "/></g></g></g><g fill="#3c6aaf" fill-opacity="1"><g transform="translate(207.609682, 34.169197)"><g><path d="M 3.34375 -0.625 L 3.34375 0 L 0.5 0 L 0.5 -3.9375 L 3.296875 -3.9375 L 3.296875 -3.3125 L 1.296875 -3.3125 L 1.296875 -2.28125 L 3.140625 -2.28125 L 3.140625 -1.65625 L 1.296875 -1.65625 L 1.296875 -0.625 Z M 3.34375 -0.625 "/></g></g></g><g fill="#3c6aaf" fill-opacity="1"><g transform="translate(215.10035, 34.169197)"><g><path d="M 4.75 -3.9375 L 4.75 0 L 3.96875 0 L 3.96875 -1.8125 C 3.96875 -2.4375 3.96875 -2.890625 3.96875 -3.171875 C 3.863281 -2.710938 3.742188 -2.265625 3.609375 -1.828125 L 3.0625 0 L 2.203125 0 L 1.640625 -1.828125 C 1.492188 -2.316406 1.375 -2.757812 1.28125 -3.15625 C 1.289062 -2.882812 1.296875 -2.4375 1.296875 -1.8125 L 1.296875 0 L 0.5 0 L 0.5 -3.9375 L 1.75 -3.9375 L 2.640625 -0.71875 L 3.53125 -3.9375 Z M 4.75 -3.9375 "/></g></g></g></svg>